<svg width="36" height="36" viewBox="0 0 36 36" fill="none" xmlns="http://www.w3.org/2000/svg">
    <g clip-path="url(#clip0_21_216)">
        <path
            d="M20.9745 16.617H24.153C24.2268 16.617 24.2975 16.5878 24.3498 16.5358C24.4021 16.4838 24.4316 16.4132 24.432 16.3395V13.509C24.432 13.435 24.4026 13.364 24.3503 13.3117C24.298 13.2594 24.227 13.23 24.153 13.23H20.9745C20.9009 13.23 20.8303 13.2592 20.7783 13.3113C20.7263 13.3633 20.697 13.4339 20.697 13.5075V16.3395C20.697 16.4925 20.8215 16.617 20.9745 16.617ZM16.5435 8.472H19.7205C19.7945 8.472 19.8655 8.4426 19.9178 8.39028C19.9701 8.33796 19.9995 8.26699 19.9995 8.193V5.361C19.9991 5.28726 19.9696 5.21668 19.9173 5.16468C19.865 5.11268 19.7943 5.0835 19.7205 5.0835H16.5435C16.4699 5.0835 16.3993 5.11273 16.3473 5.16477C16.2953 5.21682 16.266 5.2874 16.266 5.361V8.193C16.266 8.346 16.389 8.472 16.5435 8.472ZM16.5435 12.5445H19.7205C19.7944 12.5441 19.8651 12.5146 19.9174 12.4623C19.9696 12.4101 19.9991 12.3394 19.9995 12.2655V9.435C19.9991 9.36126 19.9696 9.29068 19.9173 9.23868C19.865 9.18668 19.7943 9.1575 19.7205 9.1575H16.5435C16.4699 9.1575 16.3993 9.18673 16.3473 9.23877C16.2953 9.29082 16.266 9.3614 16.266 9.435V12.2655C16.266 12.4185 16.389 12.543 16.5435 12.5445ZM12.1485 12.5445H15.3285C15.402 12.5437 15.4722 12.514 15.5239 12.4617C15.5755 12.4095 15.6045 12.339 15.6045 12.2655V9.435C15.6045 9.3614 15.5753 9.29082 15.5232 9.23877C15.4712 9.18673 15.4006 9.1575 15.327 9.1575H12.15C12.0764 9.1575 12.0058 9.18673 11.9538 9.23877C11.9018 9.29082 11.8725 9.3614 11.8725 9.435V12.2655C11.8725 12.4185 11.997 12.543 12.15 12.5445M7.70403 12.5445H10.8825C10.9563 12.5441 11.0268 12.5145 11.0788 12.4623C11.1308 12.41 11.16 12.3392 11.16 12.2655V9.435C11.16 9.3614 11.1308 9.29082 11.0787 9.23877C11.0267 9.18673 10.9561 9.1575 10.8825 9.1575H7.70403C7.63029 9.1575 7.55955 9.18668 7.50727 9.23868C7.45499 9.29068 7.42542 9.36126 7.42503 9.435V12.2655C7.42503 12.4185 7.55103 12.543 7.70403 12.5445ZM16.5435 16.617H19.7205C19.7943 16.617 19.865 16.5878 19.9173 16.5358C19.9696 16.4838 19.9991 16.4132 19.9995 16.3395V13.509C19.9995 13.435 19.9701 13.364 19.9178 13.3117C19.8655 13.2594 19.7945 13.23 19.7205 13.23H16.5435C16.4699 13.23 16.3993 13.2592 16.3473 13.3113C16.2953 13.3633 16.266 13.4339 16.266 13.5075V16.3395C16.266 16.4925 16.389 16.617 16.5435 16.617ZM12.1485 16.617H15.3285C15.4019 16.6166 15.4721 16.5872 15.5238 16.5352C15.5755 16.4832 15.6045 16.4128 15.6045 16.3395V13.509C15.6047 13.4726 15.5977 13.4364 15.584 13.4027C15.5702 13.3689 15.5499 13.3382 15.5243 13.3123C15.4987 13.2864 15.4682 13.2658 15.4346 13.2517C15.401 13.2376 15.365 13.2302 15.3285 13.23H12.1485C12.0752 13.2304 12.005 13.2598 11.9533 13.3118C11.9016 13.3638 11.8725 13.4342 11.8725 13.5075V16.3395C11.8725 16.4925 11.997 16.617 12.15 16.617M7.70403 16.617H10.8825C10.9561 16.617 11.0267 16.5878 11.0787 16.5357C11.1308 16.4837 11.16 16.4131 11.16 16.3395V13.509C11.1602 13.4726 11.1532 13.4364 11.1395 13.4027C11.1257 13.3689 11.1054 13.3382 11.0798 13.3123C11.0542 13.2864 11.0237 13.2658 10.9901 13.2517C10.9565 13.2376 10.9205 13.2302 10.884 13.23H7.70403C7.63003 13.23 7.55907 13.2594 7.50674 13.3117C7.45442 13.364 7.42503 13.435 7.42503 13.509V16.3395C7.42503 16.4925 7.55103 16.617 7.70403 16.617ZM3.32403 16.617H6.50403C6.57736 16.6166 6.64756 16.5872 6.69928 16.5352C6.751 16.4832 6.78003 16.4128 6.78003 16.3395V13.509C6.78022 13.4726 6.77324 13.4364 6.75948 13.4027C6.74571 13.3689 6.72544 13.3382 6.69981 13.3123C6.67418 13.2864 6.6437 13.2658 6.61011 13.2517C6.57651 13.2376 6.54047 13.2302 6.50403 13.23H3.32403C3.25069 13.2304 3.18049 13.2598 3.12877 13.3118C3.07705 13.3638 3.04802 13.4342 3.04803 13.5075V16.3395C3.04803 16.4925 3.16953 16.617 3.32403 16.617ZM35.6445 14.835C35.547 14.7585 34.6365 14.07 32.7135 14.07C32.2065 14.0715 31.6995 14.115 31.1985 14.2005C30.8265 11.6505 28.719 10.4055 28.6245 10.3515L28.1085 10.053L27.7695 10.5435C27.3435 11.2005 27.0345 11.9265 26.8515 12.6885C26.5065 14.1435 26.7165 15.5115 27.456 16.68C26.5635 17.178 25.131 17.2995 24.84 17.31H1.12653C0.828797 17.3104 0.543332 17.4286 0.332525 17.6389C0.121718 17.8491 0.00271461 18.1343 0.00152554 18.432C-0.0262519 20.5092 0.325517 22.5741 1.03953 24.525C1.85703 26.667 3.07203 28.245 4.65453 29.211C6.42453 30.2955 9.30453 30.9165 12.567 30.9165C14.0415 30.921 15.5115 30.7875 16.962 30.5175C18.9763 30.1475 20.9145 29.4433 22.6965 28.434C24.1665 27.5835 25.4865 26.502 26.6115 25.23C28.4895 23.103 29.6085 20.7345 30.441 18.63H30.7725C32.8305 18.63 34.095 17.8065 34.7925 17.1165C35.256 16.677 35.6175 16.1415 35.853 15.5475L36 15.1155L35.6445 14.835Z"
            fill="#006FBD" />
    </g>
    <defs>
        <clipPath id="clip0_21_216">
            <rect width="36" height="36" fill="white" />
        </clipPath>
    </defs>
</svg>