<svg width="36" height="36" viewBox="0 0 36 36" fill="none" xmlns="http://www.w3.org/2000/svg">
    <g clip-path="url(#clip0_21_195)">
        <path
            d="M18.0559 9.4957C25.4675 3.74183 21.6637 0 21.6637 0C22.2298 5.9483 15.5396 7.35281 13.7463 11.4403C12.5226 14.2296 14.5843 16.6717 18.0535 19.7498C17.7468 19.0681 17.2737 18.4057 16.7949 17.7351C15.1615 15.4477 13.4601 13.0648 18.0559 9.4957Z"
            fill="#E76F00" />
        <path
            d="M19.2392 21.0116C19.2392 21.0116 21.469 19.2126 19.7032 17.2134C13.7173 10.4308 26.25 7.35278 26.25 7.35278C18.5982 11.039 19.7405 13.227 21.6638 15.8852C23.723 18.7355 19.2392 21.0116 19.2392 21.0116Z"
            fill="#E76F00" />
        <path
            d="M25.8041 26.3763C32.6726 22.8665 29.4969 19.4938 27.2803 19.9482C26.737 20.0593 26.4948 20.1557 26.4948 20.1557C26.4948 20.1557 26.6965 19.845 27.0817 19.7105C31.4668 18.1945 34.8392 24.1818 25.6661 26.5532C25.6661 26.5532 25.7724 26.4598 25.8041 26.3763Z"
            fill="#5382A1" />
        <path
            d="M11.5121 21.934C7.21475 21.3697 13.8684 19.8156 13.8684 19.8156C13.8684 19.8156 11.2845 19.6443 8.10665 21.1548C4.34898 22.9423 17.4016 23.7552 24.1582 22.0078C24.8607 21.5361 25.8316 21.1273 25.8316 21.1273C25.8316 21.1273 23.0667 21.6128 20.3131 21.8413C16.9438 22.1188 13.3266 22.1729 11.5121 21.934Z"
            fill="#5382A1" />
        <path
            d="M13.1472 25.2853C10.7508 25.0416 12.3199 23.8994 12.3199 23.8994C6.11886 25.9233 15.77 28.2184 24.4349 25.7268C23.5139 25.4075 22.9282 24.8235 22.9282 24.8235C18.6933 25.6254 16.2461 25.5997 13.1472 25.2853Z"
            fill="#5382A1" />
        <path
            d="M14.1913 28.9115C11.7967 28.6408 13.1957 27.8408 13.1957 27.8408C7.56666 29.3875 16.6195 32.5828 23.7862 29.5624C22.6124 29.1135 21.7719 28.5954 21.7719 28.5954C18.575 29.1903 17.0922 29.2369 14.1913 28.9115Z"
            fill="#5382A1" />
        <path
            d="M29.181 30.7562C29.181 30.7562 30.2163 31.595 28.0408 32.2439C23.9041 33.4762 10.8235 33.8483 7.18981 32.293C5.88357 31.7342 8.33313 30.9588 9.10367 30.796C9.90727 30.6246 10.3665 30.6566 10.3665 30.6566C8.91382 29.6503 0.97705 32.6325 6.335 33.4866C20.9469 35.8169 32.9712 32.4372 29.181 30.7562Z"
            fill="#5382A1" />
        <path
            d="M31.5 32.5889C31.2603 35.6565 21.1362 36.3018 14.5433 35.8868C10.2424 35.6156 9.38041 34.9378 9.3678 34.9279C13.4842 35.5952 20.4243 35.7167 26.0514 34.6753C31.0391 33.7518 31.5 32.5889 31.5 32.5889Z"
            fill="#5382A1" />
    </g>
    <defs>
        <clipPath id="clip0_21_195">
            <rect width="36" height="36" fill="white" />
        </clipPath>
    </defs>
</svg>