<svg width="36" height="36" viewBox="0 0 36 36" fill="none" xmlns="http://www.w3.org/2000/svg">
    <path
        d="M24.6075 8.25151C24.435 8.25151 24.318 8.27251 24.1965 8.30101V8.32051H24.2175C24.2985 8.47651 24.4365 8.59051 24.5385 8.73001C24.6195 8.89051 24.6885 9.05101 24.7695 9.21001L24.7905 9.18751C24.9315 9.08851 25.0005 8.92951 25.0005 8.68801C24.9405 8.61751 24.9315 8.54701 24.8805 8.47801C24.8205 8.37751 24.6915 8.32801 24.6105 8.24851L24.6075 8.25151ZM8.655 28.0425H7.2645C7.2254 25.8327 7.09027 23.6256 6.8595 21.4275H6.8475L4.7325 28.0425H3.675L1.575 21.4275H1.56C1.39574 23.629 1.2982 25.8351 1.2675 28.0425H0C0.0825 25.0935 0.288 22.3275 0.615 19.7475H2.34L4.3425 25.8435H4.3545L6.375 19.7475H8.0175C8.3805 22.77 8.5935 25.5375 8.6595 28.0425H8.655ZM14.6805 21.9225C14.1135 24.99 13.3665 27.222 12.4425 28.6125C11.7195 29.6865 10.9275 30.222 10.068 30.222C9.8385 30.222 9.558 30.153 9.219 30.015V29.274C9.384 29.2995 9.579 29.313 9.798 29.313C10.2 29.313 10.5225 29.2005 10.7685 28.98C11.064 28.71 11.211 28.407 11.211 28.0725C11.211 27.84 11.0955 27.3675 10.866 26.6565L9.345 21.9225H10.71L11.8005 25.4625C12.0465 26.2665 12.15 26.8275 12.108 27.147C12.708 25.551 13.125 23.8065 13.3605 21.9225H14.6805ZM34.836 16.9665C34.0335 16.9455 33.411 17.0265 32.8905 17.2485C32.7405 17.3085 32.5005 17.3085 32.4795 17.499C32.562 17.5785 32.574 17.709 32.6445 17.82C32.7645 18.021 32.9715 18.2895 33.1635 18.4305C33.3735 18.5955 33.5835 18.7545 33.804 18.8955C34.194 19.1355 34.6365 19.278 35.019 19.5195C35.2365 19.6605 35.4585 19.839 35.679 19.989C35.7885 20.064 35.859 20.199 36 20.247V20.217C35.931 20.127 35.91 19.9965 35.8425 19.896C35.742 19.7955 35.6415 19.7055 35.5425 19.6065C35.248 19.2184 34.8965 18.8771 34.5 18.594C34.179 18.375 33.477 18.069 33.345 17.7015L33.3255 17.6805C33.5445 17.661 33.8055 17.5815 34.0155 17.5215C34.356 17.4315 34.668 17.451 35.0205 17.3625C35.1795 17.322 35.34 17.2725 35.5005 17.2215V17.1315C35.3205 16.9515 35.1855 16.707 34.9995 16.539C34.4803 16.0852 33.9267 15.6725 33.3435 15.3045C33.0285 15.1035 32.6295 14.9745 32.298 14.8035C32.178 14.7435 31.977 14.7135 31.908 14.613C31.728 14.394 31.623 14.103 31.4955 13.842C31.201 13.2706 30.9273 12.6888 30.675 12.0975C30.495 11.7045 30.3855 11.313 30.165 10.953C29.13 9.24751 28.0095 8.21401 26.286 7.20301C25.9155 6.99301 25.4715 6.90301 25.002 6.79201C24.7515 6.78001 24.501 6.76201 24.252 6.75151C24.087 6.68101 23.928 6.49051 23.787 6.39901C23.217 6.03901 21.741 5.25901 21.321 6.29101C21.051 6.94201 21.7215 7.58401 21.954 7.91401C22.1265 8.14351 22.344 8.40601 22.464 8.66401C22.5345 8.83801 22.554 9.01651 22.6245 9.19801C22.7835 9.63901 22.935 10.131 23.145 10.5435C23.2545 10.7535 23.3745 10.974 23.5155 11.163C23.5965 11.2725 23.7345 11.3235 23.766 11.5035C23.625 11.7075 23.616 12.0045 23.535 12.2535C23.175 13.389 23.316 14.793 23.826 15.6285C23.9865 15.8775 24.369 16.4295 24.8805 16.218C25.3305 16.038 25.2315 15.468 25.3605 14.9655C25.3905 14.8455 25.371 14.766 25.4325 14.685V14.7075C25.5735 14.9895 25.7145 15.258 25.8435 15.54C26.1525 16.032 26.6925 16.542 27.144 16.8825C27.384 17.0625 27.5745 17.3745 27.8745 17.4855V17.4555H27.852C27.7875 17.3685 27.702 17.3265 27.621 17.256C27.4308 17.0698 27.2553 16.8692 27.096 16.656C26.6734 16.0785 26.2986 15.4675 25.9755 14.829C25.8105 14.514 25.6725 14.175 25.5405 13.8645C25.4805 13.7445 25.4805 13.5645 25.38 13.5045C25.23 13.7235 25.0095 13.914 24.9 14.184C24.7095 14.616 24.69 15.147 24.618 15.699C24.5775 15.7095 24.597 15.699 24.5775 15.72C24.2565 15.642 24.147 15.309 24.027 15.03C23.727 14.3175 23.6775 13.173 23.937 12.3525C24.0075 12.1425 24.3075 11.4795 24.1875 11.2785C24.1245 11.088 23.9265 10.9785 23.817 10.824C23.6761 10.6229 23.5556 10.4084 23.457 10.1835C23.217 9.62251 23.097 9.00151 22.836 8.44051C22.716 8.18101 22.506 7.90951 22.335 7.67101C22.1445 7.40101 21.9345 7.21051 21.783 6.89101C21.7335 6.78151 21.663 6.60001 21.7425 6.48001C21.7635 6.39901 21.8055 6.36751 21.8835 6.34501C22.0155 6.23701 22.386 6.37801 22.5165 6.43801C22.887 6.58801 23.199 6.72901 23.5095 6.93901C23.6505 7.03801 23.802 7.22851 23.982 7.27801H24.192C24.513 7.34851 24.8745 7.29901 25.1745 7.38751C25.707 7.55851 26.187 7.80751 26.6175 8.07751C27.944 8.92488 29.0229 10.1078 29.745 11.5065C29.865 11.7375 29.9175 11.949 30.027 12.189C30.237 12.684 30.4965 13.1835 30.7095 13.662C30.9195 14.1345 31.122 14.616 31.4235 15.0075C31.5735 15.2175 32.1765 15.327 32.4465 15.4365C32.646 15.5265 32.9565 15.609 33.1365 15.7185C33.4815 15.9285 33.8175 16.1685 34.1415 16.3995C34.3065 16.5135 34.806 16.764 34.836 16.9665Z"
        fill="#00608A" />
    <path d="M33.168 27.0224V28.0424H29.223V25.0097L30.5505 25.4306V27.0224H33.168Z" fill="#E76F00" />
    <path
        d="M23.247 26.3894L23.25 26.3819C22.9125 25.8419 22.7445 24.9719 22.7445 23.7779C22.7445 23.4875 22.7568 23.2173 22.7814 22.9672L21.4718 22.552C21.3853 22.9978 21.342 23.492 21.342 24.0344C21.342 25.4924 21.627 26.5634 22.203 27.2444C22.728 27.8594 23.5185 28.1669 24.5775 28.1669C24.9735 28.1669 25.3365 28.1174 25.665 28.0199L27.6525 29.1779L28.1925 28.2449H28.188L26.664 27.4949C26.799 27.3809 26.9295 27.2579 27.0465 27.1199C27.5625 26.517 27.8721 25.6812 27.9776 24.6148L26.6169 24.1833C26.5762 26.1523 25.941 27.1394 24.714 27.1394C24.0465 27.1394 23.559 26.8889 23.247 26.3894Z"
        fill="#E76F00" />
    <path
        d="M20.772 25.7489L20.763 25.7444C20.763 26.4494 20.505 27.0284 19.989 27.4784C19.473 27.9284 18.7845 28.1534 17.913 28.1534C17.0985 28.1534 16.317 27.8954 15.5535 27.3809L15.909 26.6669C16.566 26.9969 17.1585 27.1589 17.694 27.1589C18.192 27.1589 18.5835 27.0494 18.8685 26.8289C19.011 26.7216 19.126 26.582 19.2042 26.4217C19.2824 26.2614 19.3216 26.0848 19.3185 25.9064C19.3185 25.4114 18.9735 24.9914 18.3465 24.6389C17.7645 24.3194 16.602 23.6534 16.602 23.6534C15.969 23.1929 15.654 22.6994 15.654 21.8879C15.654 21.472 15.7434 21.1074 15.9219 20.7922L17.1703 21.1881C17.1517 21.2186 17.1346 21.2502 17.1193 21.2827C17.055 21.4185 17.0213 21.5667 17.0205 21.7169C17.0205 22.2089 17.3715 22.6319 18.0195 22.9919C18.609 23.3144 19.8 23.9969 19.8 23.9969C20.4495 24.4544 20.772 24.9419 20.772 25.7489Z"
        fill="#E76F00" />
    <path d="M30.5505 25.4306L29.223 25.0097V19.7475H30.5505V25.4306Z" fill="#E76F00" />
    <path
        d="M21.4718 22.552L22.7814 22.9672C22.9335 21.418 23.5569 20.643 24.6495 20.643C25.314 20.643 25.8045 20.8935 26.115 21.393C26.451 21.936 26.619 22.797 26.619 23.9775C26.619 24.0472 26.6183 24.1159 26.6169 24.1834L27.9776 24.6148C28.0049 24.3388 28.0185 24.0473 28.0185 23.7405C28.0185 20.9955 26.9415 19.6215 24.786 19.6215C23.73 19.6215 22.905 19.9695 22.311 20.667C21.9019 21.1503 21.6219 21.7785 21.4718 22.552Z"
        fill="#E76F00" />
    <path
        d="M17.1702 21.1881L15.9219 20.7923C16.0331 20.5959 16.1788 20.4188 16.359 20.2605C16.8315 19.8435 17.439 19.638 18.189 19.638C18.957 19.638 19.659 19.842 20.289 20.253L19.9695 20.967C19.4661 20.7458 18.9233 20.6285 18.3735 20.622C17.949 20.622 17.6205 20.724 17.3925 20.931C17.3045 21.0039 17.2294 21.0908 17.1702 21.1881Z"
        fill="#E76F00" />
</svg>