<svg width="36" height="36" viewBox="0 0 36 36" fill="none" xmlns="http://www.w3.org/2000/svg">
    <g clip-path="url(#clip0_21_224)">
        <path
            d="M17.997 36C17.5155 36 17.0355 35.874 16.614 35.6295L12.21 33.024C11.553 32.6565 11.874 32.526 12.09 32.4495C12.9675 32.145 13.1445 32.0745 14.082 31.5435C14.1795 31.488 14.3085 31.509 14.409 31.569L17.793 33.5775C17.916 33.645 18.0885 33.645 18.201 33.5775L31.3935 25.9635C31.5165 25.893 31.5945 25.752 31.5945 25.6065V10.3815C31.5945 10.233 31.515 10.0935 31.389 10.0185L18.2025 2.41051C18.081 2.34001 17.919 2.34001 17.796 2.41051L4.61249 10.02C4.48499 10.0935 4.40399 10.2375 4.40399 10.3815V25.6065C4.40399 25.752 4.48499 25.89 4.61249 25.959L8.22599 28.047C10.1865 29.028 11.388 27.873 11.388 26.712V11.6805C11.388 11.4675 11.559 11.301 11.772 11.301H13.4445C13.653 11.301 13.827 11.469 13.827 11.6805V26.712C13.827 29.3295 12.402 30.8295 9.92099 30.8295C9.15899 30.8295 8.55749 30.8295 6.88199 30.003L3.41999 28.0125C2.56499 27.519 2.03699 26.595 2.03699 25.6065V10.3815C2.03699 9.39301 2.56649 8.46901 3.41999 7.97701L16.6125 0.354009C17.448 -0.118491 18.5565 -0.118491 19.3845 0.354009L32.5755 7.97701C33.4305 8.47051 33.9615 9.39301 33.9615 10.3815V25.6065C33.9615 26.595 33.4305 27.516 32.5755 28.0125L19.3845 35.6295C18.9645 35.874 18.486 36 17.997 36ZM28.6485 20.9895C28.6485 18.1395 26.7225 17.3805 22.668 16.845C18.5715 16.3035 18.1545 16.023 18.1545 15.0645C18.1545 14.2725 18.507 13.215 21.5415 13.215C24.252 13.215 25.251 13.7985 25.662 15.6255C25.698 15.798 25.8555 15.924 26.0325 15.924H27.744C27.8505 15.924 27.951 15.8775 28.023 15.8025C28.095 15.7215 28.134 15.618 28.1235 15.5085C27.858 12.3615 25.767 10.8945 21.5415 10.8945C17.7795 10.8945 15.5355 12.4815 15.5355 15.144C15.5355 18.0315 17.7675 18.8295 21.378 19.1865C25.698 19.6095 26.0325 20.241 26.0325 21.09C26.0325 22.5645 24.849 23.193 22.0695 23.193C18.579 23.193 17.811 22.317 17.553 20.58C17.523 20.394 17.364 20.2575 17.1735 20.2575H15.468C15.2565 20.2575 15.087 20.4255 15.087 20.637C15.087 22.86 16.296 25.509 22.0695 25.509C26.2515 25.5105 28.6485 23.865 28.6485 20.9895Z"
            fill="#539E43" fill-opacity="0.933333" />
    </g>
    <defs>
        <clipPath id="clip0_21_224">
            <rect width="36" height="36" fill="white" />
        </clipPath>
    </defs>
</svg>