<svg width="36" height="36" viewBox="0 0 36 36" fill="none" xmlns="http://www.w3.org/2000/svg">
    <g clip-path="url(#clip0_21_240)">
        <path
            d="M35.3391 22.0842C35.3185 22.0214 35.2902 21.9613 35.2547 21.9056C35.0462 21.5108 34.5395 21.3929 33.7436 21.5574C31.2636 22.0691 30.3033 21.7542 29.9552 21.5288C31.9682 18.4565 33.6227 14.7458 34.5168 11.2842C34.9239 9.70815 35.7141 5.99865 34.7001 4.1868C34.6353 4.06279 34.5596 3.94482 34.4738 3.8343C32.5397 1.3629 29.7011 0.0372021 26.2649 0.000752105C24.0228 -0.0229479 22.1091 0.519902 21.5907 0.719852C21.3339 0.671929 21.0759 0.631114 20.8169 0.597452C20.1675 0.479867 19.5096 0.415752 18.8498 0.405752C17.0765 0.378152 15.5441 0.802052 14.2751 1.66665C12.9891 1.185 7.09185 -0.800848 3.4422 1.78485C1.40385 3.2289 0.462904 5.80995 0.645304 9.45645C0.706654 10.6835 1.40565 14.4575 2.50875 18.0719C3.19845 20.3316 3.9168 22.1247 4.65885 23.4449C5.48835 24.9362 6.3477 25.8348 7.2303 26.1291C7.9014 26.3528 8.92935 26.3453 10.0175 25.0373C11.2193 23.592 12.4029 22.2986 12.9344 21.7269C13.587 22.0802 14.294 22.2707 15.0194 22.2927C15.0195 22.2948 15.0197 22.2968 15.02 22.2989C14.8936 22.4493 14.77 22.6021 14.6492 22.757C14.1408 23.4023 14.0351 23.5365 12.3989 23.8734C11.9336 23.9694 10.6973 24.2243 10.6793 25.0907C10.6755 25.2743 10.7286 25.437 10.8171 25.5809C11.1575 26.2155 12.1995 26.4954 12.3396 26.5305C14.3414 27.0308 16.0962 26.6685 17.3967 25.5125C17.3712 28.859 17.513 32.1386 17.9148 33.1436C18.2466 33.9729 19.0575 36.0003 21.6186 36C21.9944 36 22.4081 35.9564 22.863 35.8589C25.5359 35.2857 26.6966 34.1045 27.1455 31.5C27.371 30.194 27.7479 27.1871 27.9537 25.3482C27.9791 25.2428 28.0073 25.1672 28.0392 25.1439C28.0403 25.1432 28.1438 25.0733 28.68 25.19C28.7019 25.1947 28.7241 25.1981 28.7465 25.2002L29.1273 25.2336L29.1497 25.2351C30.4199 25.2927 32.0168 25.0212 32.9465 24.5889C33.9122 24.1407 35.655 23.0405 35.3391 22.0842ZM3.5565 17.8148C2.44125 14.1611 1.78965 10.4871 1.73805 9.4569C1.57515 6.1998 2.3637 3.93255 4.0815 2.71785C6.83655 0.769952 11.3412 1.90665 13.2435 2.52285C13.2387 2.52765 13.2336 2.532 13.2288 2.53695C10.1931 5.60295 10.2651 10.841 10.2726 11.1612C10.2723 11.2847 10.2825 11.4596 10.2969 11.7002C10.3491 12.5811 10.4463 14.2208 10.1867 16.0778C9.9453 17.8034 10.4772 19.4924 11.6459 20.7116C11.7668 20.8377 11.8931 20.9562 12.0236 21.0677C11.5034 21.6248 10.373 22.8566 9.1698 24.3041C8.31825 25.3278 7.73025 25.1316 7.5369 25.0671C6.94905 24.8711 6.3174 24.1865 5.67975 23.0837C4.96035 21.8252 4.2345 20.0361 3.5565 17.8148ZM12.5673 25.4454C12.3107 25.3812 12.0767 25.2756 11.919 25.1796C12.0524 25.1205 12.2751 25.0443 12.644 24.9683C14.5689 24.5721 14.8662 24.2924 15.5154 23.468C15.6642 23.279 15.8328 23.0649 16.0664 22.8041C16.1166 22.7477 16.1543 22.6814 16.1769 22.6094C16.4331 22.3824 16.5855 22.4445 16.8323 22.5468C17.0663 22.6437 17.294 22.9368 17.3865 23.2596C17.4302 23.412 17.4794 23.7014 17.3187 23.9262C15.9623 25.8249 13.9863 25.8003 12.5673 25.4454ZM15.7083 19.4634L15.6296 19.6749C15.4301 20.2098 15.2445 20.7071 15.1295 21.1794C14.1284 21.1763 13.1543 20.7486 12.4137 19.9758C11.4719 18.9932 11.0441 17.6262 11.24 16.2252C11.5142 14.2634 11.4129 12.555 11.3585 11.6373C11.351 11.5088 11.3442 11.3963 11.3402 11.3075C11.7837 10.9143 13.839 9.81315 15.3045 10.1489C15.9734 10.3022 16.3809 10.7574 16.5503 11.5409C17.4272 15.5966 16.6664 17.2869 16.055 18.6453C15.929 18.9252 15.81 19.1897 15.7083 19.4634ZM26.7539 26.3222C26.7285 26.5874 26.7002 26.8862 26.6612 27.216L26.4422 27.8735C26.4248 27.9256 26.4156 27.9801 26.4149 28.035C26.406 28.7471 26.3339 29.0084 26.2424 29.339C26.1473 29.6828 26.0394 30.0726 25.9733 30.9252C25.8083 33.0467 24.656 34.2653 22.3475 34.76C20.0742 35.2476 19.671 34.0148 19.3157 32.9274C19.2793 32.8134 19.2408 32.7001 19.2003 32.5875C18.8772 31.7088 18.9137 30.4697 18.9642 28.7549C18.989 27.9131 18.9269 25.9029 18.4689 24.7856C18.4755 24.3458 18.4848 23.8992 18.4974 23.4479C18.4989 23.3907 18.4912 23.3336 18.4745 23.279C18.4599 23.1735 18.4379 23.0693 18.4086 22.967C18.2247 22.3245 17.7767 21.7871 17.2391 21.5643C17.0255 21.4758 16.6334 21.3135 16.1624 21.434C16.2629 21.02 16.437 20.5527 16.6259 20.0466L16.7052 19.8336C16.7945 19.5936 16.9062 19.3451 17.0247 19.0818C17.6645 17.6604 18.5406 15.7139 17.5896 11.316C17.2335 9.66885 16.044 8.86455 14.241 9.0513C13.16 9.1632 12.1712 9.5994 11.6778 9.84945C11.5789 9.89958 11.481 9.95164 11.3841 10.0056C11.5218 8.346 12.042 5.24445 13.9877 3.28215C14.1322 3.13652 14.284 2.99834 14.4426 2.86815C14.5213 2.8528 14.5955 2.81977 14.6597 2.77155C15.7883 1.91565 17.2014 1.49565 18.8627 1.5228C19.4763 1.53285 20.0652 1.57365 20.624 1.6443C23.5325 2.1759 25.4898 3.8145 26.6778 5.21835C27.8993 6.6618 28.5606 8.1156 28.8246 8.8998C26.8398 8.6979 25.4895 9.09 24.8051 10.0683C23.3162 12.1967 25.6196 16.3277 26.7267 18.3129C26.9297 18.6768 27.105 18.9912 27.1601 19.1249C27.5205 19.9986 27.9873 20.5818 28.3281 21.0077C28.4325 21.1382 28.5339 21.2648 28.6109 21.3752C28.0097 21.5484 26.9297 21.9489 27.0281 23.9507C27.0096 24.1851 26.9646 24.621 26.903 25.1729C26.8338 25.4844 26.7977 25.8633 26.7539 26.3222ZM28.0896 23.8905C28.0289 22.6431 28.4933 22.5128 28.9847 22.3748C29.0526 22.3561 29.1202 22.3358 29.1872 22.3139C29.2505 22.37 29.3178 22.4216 29.3885 22.4684C30.2439 23.0331 31.7619 23.1003 33.8987 22.67C33.5963 22.9353 33.1203 23.2691 32.4687 23.5716C31.854 23.8571 30.8252 24.0711 29.8478 24.117C28.7682 24.1674 28.2189 23.996 28.0896 23.8905ZM28.9439 9.9837C28.935 10.5099 28.8626 10.9875 28.7858 11.4863C28.7033 12.0227 28.6178 12.5774 28.5962 13.2506C28.5749 13.9058 28.6568 14.5869 28.736 15.2457C28.8959 16.5762 29.06 17.9462 28.4247 19.2978C28.3193 19.1109 28.2253 18.9177 28.1433 18.7194C28.0643 18.528 27.893 18.2205 27.6557 17.7951C26.7323 16.139 24.5696 12.2607 25.6767 10.6782C26.246 9.86415 27.6879 9.82905 28.9439 9.9837ZM29.2865 20.5043C29.2441 20.4503 29.2015 20.3966 29.1585 20.3432L29.1053 20.2766C30.1946 18.4773 29.9816 16.6973 29.792 15.1188C29.7141 14.4711 29.6406 13.8594 29.6592 13.2849C29.6786 12.6758 29.7591 12.1535 29.837 11.6483C29.9328 11.0258 30.0302 10.3818 30.0033 9.6225C30.0234 9.54285 30.0315 9.4488 30.021 9.3372C29.9525 8.60895 29.1212 6.4302 27.4269 4.4577C26.5155 3.39675 25.1925 2.2119 23.3936 1.39845C24.1812 1.23855 25.2428 1.0932 26.4302 1.1196C29.5074 1.188 31.9421 2.33985 33.6665 4.5432C33.7031 4.59103 33.7365 4.64124 33.7665 4.6935C34.8512 6.7269 33.3522 14.1062 29.2865 20.5043ZM16.0616 11.33C16.0241 11.5991 15.5982 11.9637 15.1299 11.9637C15.0893 11.9637 15.0488 11.9609 15.0086 11.9553C14.7276 11.9163 14.4438 11.7393 14.2497 11.4819C14.181 11.3912 14.0693 11.2149 14.0915 11.0553C14.0997 10.9952 14.1306 10.9076 14.2302 10.8321C14.4075 10.698 14.7579 10.6482 15.1446 10.7021C15.6191 10.7682 16.1085 10.9928 16.0616 11.33ZM27.9573 10.7129C27.974 10.8317 27.8838 11.0144 27.7277 11.1782C27.6252 11.2857 27.4097 11.4723 27.1158 11.513C27.0785 11.5181 27.0409 11.5207 27.0033 11.5208C26.5631 11.5208 26.1912 11.1692 26.1623 10.9632C26.1263 10.6985 26.5584 10.4973 27.0039 10.4352C27.4494 10.3731 27.9206 10.4484 27.9573 10.7129Z"
            fill="#336791" />
    </g>
    <defs>
        <clipPath id="clip0_21_240">
            <rect width="36" height="36" fill="white" />
        </clipPath>
    </defs>
</svg>