<svg width="36" height="36" viewBox="0 0 36 36" fill="none" xmlns="http://www.w3.org/2000/svg">
    <path
        d="M35.7516 17.549L34.2406 16.6136C34.2281 16.4667 34.2139 16.3199 34.1982 16.1732L35.4966 14.9629C35.5606 14.9021 35.6082 14.8261 35.635 14.7419C35.6617 14.6578 35.6666 14.5682 35.6493 14.4816C35.632 14.395 35.5931 14.3142 35.5361 14.2468C35.4791 14.1793 35.406 14.1274 35.3235 14.0959L33.6636 13.4749C33.6226 13.3313 33.5791 13.1885 33.5331 13.0465L34.5687 11.6084C34.6206 11.5366 34.6533 11.4527 34.6636 11.3646C34.6739 11.2766 34.6615 11.1873 34.6275 11.1055C34.5936 11.0236 34.5393 10.9517 34.4697 10.8968C34.4001 10.8418 34.3177 10.8056 34.2301 10.7915L32.4807 10.5074C32.4124 10.3752 32.3421 10.2441 32.2696 10.1141L33.0046 8.49999C33.0417 8.41951 33.0574 8.33084 33.0502 8.24253C33.043 8.15422 33.0131 8.06926 32.9635 7.99584C32.9141 7.92228 32.8468 7.86249 32.7679 7.82209C32.6891 7.78168 32.6012 7.76198 32.5126 7.76484L30.7359 7.82724C30.6447 7.71181 30.5511 7.59839 30.4549 7.48704L30.8634 5.75754C30.8836 5.6713 30.8814 5.58133 30.8571 5.49615C30.8329 5.41096 30.7873 5.33338 30.7246 5.27073C30.662 5.20809 30.5845 5.16245 30.4993 5.13812C30.4141 5.1138 30.3242 5.11161 30.2379 5.13174L28.5081 5.54034C28.3952 5.4455 28.2813 5.35184 28.1664 5.25939L28.2286 3.48264C28.2329 3.39375 28.2141 3.30526 28.174 3.22578C28.134 3.1463 28.0741 3.07852 28.0001 3.02901C27.9262 2.97951 27.8407 2.94996 27.7519 2.94324C27.6632 2.93651 27.5742 2.95284 27.4936 2.99064L25.8796 3.72714C25.7488 3.65574 25.6183 3.58434 25.4862 3.51609L25.2007 1.76514C25.1859 1.67805 25.1492 1.59615 25.0941 1.52708C25.039 1.45802 24.9673 1.40406 24.8857 1.37024C24.8041 1.33642 24.7152 1.32385 24.6274 1.33371C24.5396 1.34356 24.4558 1.37552 24.3837 1.42659L22.9441 2.46234C22.8022 2.41684 22.6594 2.37383 22.5159 2.33334L21.8949 0.673442C21.8634 0.590934 21.8115 0.517762 21.744 0.460763C21.6765 0.403764 21.5957 0.364799 21.5091 0.34751C21.4225 0.33022 21.3329 0.33517 21.2487 0.361898C21.1646 0.388625 21.0885 0.436257 21.0277 0.500342L19.8174 1.80024C19.6708 1.78371 19.524 1.76951 19.377 1.75764L18.4416 0.246542C18.3951 0.171174 18.3301 0.108957 18.2527 0.0658049C18.1754 0.0226528 18.0883 0 17.9997 0C17.9111 0 17.824 0.0226528 17.7467 0.0658049C17.6693 0.108957 17.6043 0.171174 17.5578 0.246542L16.6224 1.75749C16.4755 1.77012 16.3286 1.78432 16.182 1.80009L14.9701 0.500192C14.9098 0.43532 14.8338 0.386977 14.7495 0.359764C14.6651 0.332551 14.5752 0.327374 14.4883 0.344724C14.4014 0.362075 14.3204 0.401376 14.253 0.458889C14.1856 0.516401 14.134 0.59021 14.1031 0.673292L13.482 2.33304C13.3377 2.37414 13.1965 2.41809 13.0537 2.46204L11.6157 1.42659C11.5436 1.37552 11.4597 1.34356 11.3719 1.33372C11.2841 1.32387 11.1953 1.33645 11.1136 1.37029C11.032 1.40412 10.9603 1.45811 10.9052 1.52719C10.8501 1.59627 10.8135 1.67819 10.7986 1.76529L10.5132 3.51609C10.381 3.58435 10.2499 3.65471 10.1199 3.72714L8.5056 2.99064C8.42496 2.95374 8.33622 2.93811 8.24783 2.94523C8.15944 2.95235 8.07434 2.98198 8.00065 3.03131C7.92696 3.08064 7.86713 3.14802 7.82686 3.22702C7.78659 3.30603 7.76722 3.39403 7.7706 3.48264L7.833 5.25939C7.71738 5.35093 7.60346 5.4446 7.4913 5.54034L5.76165 5.13159C5.6754 5.11144 5.58543 5.11361 5.50025 5.13791C5.41508 5.16221 5.3375 5.20783 5.27487 5.27047C5.21224 5.3331 5.16662 5.41067 5.14232 5.49585C5.11802 5.58102 5.11584 5.67099 5.136 5.75724L5.54295 7.48689C5.44875 7.59939 5.3547 7.71324 5.2635 7.82709L3.48675 7.76484C3.39814 7.76146 3.31013 7.78083 3.23113 7.8211C3.15212 7.86137 3.08475 7.92121 3.03542 7.9949C2.98609 8.06859 2.95645 8.15368 2.94934 8.24207C2.94222 8.33046 2.95785 8.41921 2.99475 8.49984L3.73125 10.114C3.65877 10.2439 3.58842 10.3751 3.5202 10.5073L1.7709 10.7914C1.68382 10.8062 1.60192 10.8429 1.53286 10.898C1.4638 10.953 1.40983 11.0247 1.376 11.1063C1.34217 11.1879 1.32958 11.2768 1.33941 11.3646C1.34924 11.4523 1.38116 11.5362 1.4322 11.6083L2.4678 13.0463C2.4227 13.1886 2.3792 13.3314 2.3373 13.4746L0.677548 14.0956C0.595029 14.1271 0.521842 14.179 0.464827 14.2465C0.407812 14.3139 0.368831 14.3947 0.351526 14.4813C0.334221 14.568 0.339158 14.6575 0.365874 14.7417C0.392591 14.8259 0.440216 14.902 0.504298 14.9627L1.8027 16.1732C1.78622 16.3198 1.77207 16.4665 1.76025 16.6135L0.249298 17.5489C0.17322 17.5949 0.110298 17.6597 0.066623 17.7371C0.0229482 17.8145 0 17.9019 0 17.9908C0 18.0797 0.0229482 18.1671 0.066623 18.2445C0.110298 18.3219 0.17322 18.3867 0.249298 18.4327L1.76025 19.3681C1.77225 19.5154 1.78755 19.6627 1.8027 19.8085L0.504298 21.0203C0.439429 21.0807 0.391093 21.1567 0.36389 21.2411C0.336688 21.3254 0.331524 21.4153 0.34889 21.5022C0.366256 21.5891 0.405574 21.6701 0.463102 21.7375C0.520631 21.805 0.594455 21.8565 0.677548 21.8873L2.3373 22.5085C2.37825 22.6528 2.42235 22.7956 2.4678 22.9367L1.4322 24.3748C1.37979 24.4466 1.34676 24.5308 1.3363 24.6191C1.32584 24.7074 1.33831 24.7969 1.37249 24.879C1.40667 24.9611 1.46143 25.033 1.53147 25.0878C1.60151 25.1426 1.68449 25.1784 1.7724 25.1918L3.5217 25.4758C3.5901 25.6078 3.66 25.7384 3.7329 25.8691L2.9964 27.4834C2.9595 27.564 2.94387 27.6528 2.95099 27.7412C2.9581 27.8295 2.98774 27.9146 3.03707 27.9883C3.0864 28.062 3.15377 28.1219 3.23278 28.1621C3.31178 28.2024 3.39979 28.2218 3.4884 28.2184L5.2635 28.1561C5.3562 28.2715 5.44875 28.3853 5.54445 28.4977L5.1375 30.2288C5.11721 30.315 5.11931 30.405 5.1436 30.4902C5.16788 30.5753 5.21354 30.6529 5.27623 30.7154C5.33893 30.778 5.41658 30.8234 5.5018 30.8475C5.58703 30.8716 5.67699 30.8735 5.76315 30.853L7.49265 30.446C7.60515 30.5417 7.71915 30.6343 7.8345 30.7255L7.77225 32.5022C7.76828 32.591 7.78729 32.6793 7.82744 32.7586C7.8676 32.8379 7.92753 32.9054 8.00144 32.9547C8.07535 33.0041 8.16074 33.0335 8.24936 33.0401C8.33797 33.0468 8.4268 33.0305 8.50725 32.9927L10.1214 32.2577C10.2519 32.3306 10.3825 32.4004 10.5147 32.4688L10.8001 34.2181C10.8148 34.3053 10.8513 34.3874 10.9063 34.4567C10.9613 34.526 11.0329 34.5801 11.1146 34.6141C11.1963 34.6481 11.2852 34.6608 11.3731 34.6511C11.461 34.6413 11.545 34.6094 11.6172 34.5583L13.0552 33.5227C13.1973 33.5685 13.3401 33.612 13.4835 33.6532L14.1045 35.3131C14.135 35.3965 14.1864 35.4707 14.2538 35.5285C14.3212 35.5863 14.4024 35.6257 14.4895 35.6431C14.5766 35.6605 14.6666 35.6552 14.7511 35.6277C14.8355 35.6002 14.9115 35.5515 14.9716 35.4862L16.1835 34.1878C16.3293 34.2044 16.4766 34.2182 16.6239 34.2319L17.5593 35.7428C17.6061 35.8179 17.6712 35.8797 17.7485 35.9226C17.8258 35.9655 17.9128 35.988 18.0012 35.988C18.0896 35.988 18.1766 35.9655 18.2539 35.9226C18.3312 35.8797 18.3963 35.8179 18.4431 35.7428L19.3785 34.2319C19.5258 34.2182 19.6731 34.2044 19.8189 34.1878L21.0292 35.4862C21.09 35.5502 21.166 35.5978 21.2502 35.6245C21.3344 35.6513 21.4239 35.6562 21.5105 35.6389C21.5971 35.6216 21.6779 35.5827 21.7454 35.5257C21.8128 35.4687 21.8647 35.3956 21.8962 35.3131L22.5174 33.6532C22.6609 33.6122 22.8037 33.5687 22.9456 33.5227L24.3837 34.5583C24.4555 34.6107 24.5397 34.6437 24.628 34.6542C24.7163 34.6646 24.8058 34.6522 24.8879 34.618C24.97 34.5838 25.0419 34.5291 25.0967 34.459C25.1515 34.389 25.1873 34.306 25.2007 34.2181L25.4862 32.4688C25.6182 32.4004 25.7488 32.3291 25.8795 32.2577L27.4938 32.9927C27.5743 33.0291 27.6628 33.0444 27.7509 33.0372C27.839 33.0299 27.9238 33.0004 27.9973 32.9513C28.0709 32.9023 28.1307 32.8353 28.1712 32.7567C28.2117 32.6782 28.2315 32.5906 28.2288 32.5022L28.1665 30.7255C28.2819 30.6348 28.3953 30.5417 28.5066 30.446L30.2362 30.853C30.3223 30.873 30.4121 30.8708 30.4971 30.8466C30.5821 30.8224 30.6595 30.7769 30.7221 30.7145C30.7847 30.6521 30.8304 30.5748 30.8548 30.4898C30.8793 30.4049 30.8817 30.3151 30.8619 30.229L30.4549 28.4977C30.5491 28.3853 30.6432 28.2715 30.7344 28.156L32.5111 28.2182C32.6 28.2225 32.6885 28.2037 32.768 28.1636C32.8475 28.1236 32.9153 28.0637 32.9648 27.9897C33.0143 27.9158 33.0438 27.8303 33.0506 27.7415C33.0573 27.6528 33.0409 27.5638 33.0031 27.4832L32.2681 25.8692C32.3394 25.7384 32.4108 25.6079 32.4792 25.4758L34.2285 25.1918C34.3156 25.177 34.3975 25.1404 34.4666 25.0853C34.5357 25.0302 34.5897 24.9585 34.6235 24.8769C34.6573 24.7952 34.6699 24.7064 34.6601 24.6186C34.6502 24.5308 34.6183 24.4469 34.5672 24.3748L33.5316 22.9367L33.6621 22.5085L35.322 21.8875C35.4051 21.8567 35.4789 21.8051 35.5365 21.7377C35.594 21.6702 35.6333 21.5892 35.6507 21.5023C35.668 21.4153 35.6628 21.3254 35.6356 21.241C35.6084 21.1567 35.56 21.0807 35.4951 21.0203L34.1967 19.8085C34.2118 19.6627 34.227 19.5154 34.2391 19.3681L35.7501 18.4327C35.8262 18.3867 35.8891 18.3219 35.9328 18.2445C35.9764 18.1671 35.9994 18.0797 35.9994 17.9908C35.9994 17.9019 35.9764 17.8145 35.9328 17.7371C35.8891 17.6597 35.8262 17.5949 35.7501 17.5489L35.7516 17.549ZM25.6396 30.0817C25.3633 30.021 25.1222 29.8533 24.9691 29.6154C24.816 29.3775 24.7633 29.0887 24.8224 28.812C24.8816 28.5353 25.0479 28.2933 25.2849 28.1389C25.522 27.9844 25.8105 27.9301 26.0875 27.9877C26.227 28.0152 26.3595 28.0703 26.4775 28.1496C26.5954 28.2289 26.6964 28.3308 26.7745 28.4495C26.8527 28.5683 26.9064 28.7013 26.9326 28.841C26.9588 28.9807 26.9569 29.1242 26.9271 29.2632C26.8972 29.4021 26.8401 29.5338 26.7588 29.6504C26.6776 29.767 26.574 29.8663 26.454 29.9425C26.334 30.0187 26.2001 30.0702 26.06 30.0941C25.9199 30.118 25.7764 30.1138 25.638 30.0817H25.6396ZM25.1263 26.6104C25.0011 26.5834 24.8718 26.5815 24.7458 26.6046C24.6197 26.6277 24.4995 26.6755 24.392 26.7452C24.2845 26.8148 24.1918 26.905 24.1192 27.0106C24.0467 27.1162 23.9956 27.2351 23.9691 27.3604L23.4331 29.8631C21.7779 30.6146 19.9404 31.0324 18.0042 31.0324C16.0896 31.0351 14.1977 30.6184 12.4615 29.8114L11.9254 27.3088C11.8989 27.1835 11.8479 27.0647 11.7753 26.9592C11.7027 26.8537 11.61 26.7636 11.5025 26.694C11.3949 26.6245 11.2747 26.5769 11.1488 26.5539C11.0228 26.531 10.8935 26.5331 10.7683 26.5603L8.55885 27.034C8.14829 26.6112 7.76677 26.1612 7.4169 25.687H18.1683C18.2898 25.687 18.3717 25.6658 18.3717 25.555V21.751C18.3717 21.64 18.2913 21.6188 18.1683 21.6188H15.0234V19.2073H18.4249C18.7347 19.2073 20.0847 19.2953 20.5159 21.0205C20.6511 21.5504 20.9472 23.2771 21.1507 23.8298C21.3526 24.4493 22.1757 25.687 23.0535 25.687H28.4109C28.4761 25.6861 28.5412 25.6795 28.6053 25.6673C28.2338 26.172 27.8268 26.6495 27.3874 27.0962L25.1263 26.6104ZM10.255 30.0301C10.1166 30.0622 9.97314 30.0664 9.83304 30.0425C9.69294 30.0186 9.559 29.9671 9.43902 29.8909C9.31904 29.8147 9.21542 29.7154 9.13421 29.5988C9.05299 29.4822 8.9958 29.3505 8.96597 29.2116C8.93614 29.0726 8.93426 28.9291 8.96045 28.7894C8.98664 28.6497 9.04036 28.5167 9.1185 28.3979C9.19664 28.2792 9.29763 28.1773 9.41557 28.098C9.53352 28.0187 9.66607 27.9636 9.8055 27.9361C10.0812 27.8816 10.3672 27.9377 10.6019 28.0922C10.8367 28.2467 11.0013 28.4872 11.0602 28.762C11.1192 29.0367 11.0679 29.3236 10.9172 29.5609C10.7666 29.7981 10.5288 29.9666 10.255 30.0301ZM6.17625 13.4899C6.23812 13.619 6.27345 13.7593 6.28016 13.9023C6.28688 14.0453 6.26483 14.1882 6.21532 14.3226C6.16581 14.457 6.08986 14.58 5.99195 14.6845C5.89404 14.789 5.77616 14.8728 5.6453 14.9309C5.51443 14.989 5.37324 15.0203 5.23008 15.0228C5.08691 15.0254 4.94468 14.9993 4.81181 14.9459C4.67894 14.8925 4.55812 14.813 4.45651 14.7122C4.3549 14.6113 4.27456 14.491 4.22025 14.3585C4.11491 14.1008 4.11411 13.8122 4.218 13.554C4.3219 13.2957 4.52232 13.088 4.77677 12.975C5.03121 12.8621 5.31965 12.8527 5.58092 12.9488C5.84219 13.0449 6.05573 13.2389 6.17625 13.4899ZM4.92345 16.4618L7.2255 15.4382C7.3426 15.3862 7.44831 15.3117 7.53657 15.2188C7.62484 15.1259 7.69393 15.0166 7.73991 14.897C7.78588 14.7774 7.80783 14.6499 7.8045 14.5218C7.80117 14.3937 7.77262 14.2675 7.7205 14.1505L7.2468 13.0784H9.1116V21.4822H5.35005C4.8862 19.8512 4.74185 18.1459 4.92495 16.4602L4.92345 16.4618ZM15.0249 15.6463V13.1695H19.465C19.6945 13.1695 21.0838 13.4353 21.0838 14.474C21.0838 15.3365 20.0178 15.6463 19.1416 15.6463H15.0249ZM31.161 17.8756C31.161 18.2036 31.149 18.53 31.1245 18.8521H29.7745C29.6395 18.8521 29.5848 18.94 29.5848 19.0736V19.6931C29.5848 21.1526 28.7617 21.47 28.0404 21.5504C27.354 21.628 26.5932 21.2635 26.4991 20.8429C26.0935 18.565 25.4194 18.0775 24.3534 17.2378C25.6759 16.3979 27.0519 15.1588 27.0519 13.5005C27.0519 11.7101 25.8234 10.5818 24.9865 10.0276C23.8128 9.25314 22.5129 9.09834 22.162 9.09834H8.202C10.1313 6.94101 12.7186 5.48056 15.5625 4.94349L17.2086 6.66999C17.2968 6.76278 17.4024 6.83723 17.5195 6.88908C17.6365 6.94093 17.7626 6.96914 17.8906 6.97211C18.0186 6.97508 18.1459 6.95274 18.2652 6.90638C18.3845 6.86002 18.4935 6.79054 18.5859 6.70194L20.4264 4.94049C22.303 5.29245 24.0806 6.04845 25.6359 7.15607C27.1911 8.26368 28.4868 9.69639 29.433 11.3548L28.1725 14.2021C28.0681 14.4386 28.0615 14.7068 28.1543 14.9481C28.2471 15.1894 28.4316 15.3842 28.6675 15.4898L31.0942 16.568C31.1367 16.9993 31.158 17.4335 31.158 17.8756H31.161ZM17.2101 3.47664C17.4153 3.28091 17.6898 3.17471 17.9733 3.18141C18.1137 3.18472 18.2521 3.21566 18.3805 3.27244C18.5089 3.32922 18.6249 3.41074 18.7218 3.51234C18.8187 3.61395 18.8947 3.73364 18.9453 3.8646C18.996 3.99556 19.0203 4.13521 19.017 4.27559C19.0137 4.41596 18.9828 4.55431 18.926 4.68273C18.8692 4.81115 18.7877 4.92713 18.6861 5.02404C18.4781 5.20357 18.2091 5.29627 17.9347 5.28297C17.6603 5.26967 17.4015 5.15139 17.2119 4.95259C17.0223 4.75379 16.9163 4.4897 16.916 4.21497C16.9157 3.94024 17.021 3.6759 17.2101 3.47664ZM29.7184 13.5416C29.7751 13.4132 29.8565 13.2973 29.958 13.2004C30.0596 13.1035 30.1792 13.0276 30.3102 12.9771C30.4411 12.9266 30.5807 12.9024 30.721 12.906C30.8613 12.9096 30.9995 12.9408 31.1277 12.9979C31.3215 13.0834 31.4856 13.2245 31.5991 13.4033C31.7127 13.5821 31.7707 13.7906 31.7658 14.0023C31.7608 14.2141 31.6931 14.4197 31.5713 14.593C31.4495 14.7663 31.279 14.8995 31.0814 14.9759C30.8839 15.0522 30.6681 15.0683 30.4614 15.022C30.2547 14.9756 30.0664 14.869 29.9203 14.7156C29.7742 14.5622 29.6769 14.3689 29.6407 14.1602C29.6045 13.9515 29.631 13.7368 29.7169 13.5431L29.7184 13.5416Z"
        fill="#545044" />
</svg>