<svg width="36" height="36" viewBox="0 0 36 36" fill="none" xmlns="http://www.w3.org/2000/svg">
    <g clip-path="url(#clip0_21_191)">
        <path
            d="M32.7805 2.1237C32.2807 3.32271 31.6337 4.45494 30.8545 5.49435C29.186 3.76905 27.1885 2.39589 24.98 1.4561C22.7715 0.516301 20.397 0.0289545 17.9969 0.0228846C15.5968 0.0168146 13.2198 0.492145 11.0066 1.42076C8.79342 2.34937 6.78893 3.71241 5.11171 5.42924C3.43449 7.14608 2.11862 9.18184 1.24192 11.4161C0.365219 13.6504 -0.0544977 16.0378 0.00759521 18.4371C0.0696881 20.8364 0.612329 23.1989 1.60342 25.3849C2.59451 27.5708 4.01392 29.5358 5.7777 31.1635L6.44445 31.7562C8.9746 33.89 12.046 35.282 15.3185 35.7778C18.5909 36.2737 21.9368 35.8541 24.9855 34.5656C28.0343 33.2771 30.6669 31.1699 32.5918 28.4774C34.5168 25.7849 35.6589 22.6122 35.8918 19.3105C36.4104 14.7916 35.04 9.01335 32.7805 2.1237ZM8.37075 31.3117C8.1803 31.5458 7.92475 31.7181 7.63639 31.8069C7.34803 31.8958 7.03981 31.8972 6.75068 31.8109C6.46155 31.7246 6.20447 31.5546 6.01196 31.3222C5.81944 31.0899 5.70011 30.8057 5.66906 30.5056C5.638 30.2054 5.69661 29.9028 5.83748 29.636C5.97835 29.3692 6.19516 29.1501 6.46051 29.0064C6.72585 28.8628 7.02782 28.801 7.32826 28.8289C7.6287 28.8569 7.91412 28.9732 8.14845 29.1633C8.45566 29.4235 8.65035 29.7924 8.69178 30.1928C8.73322 30.5932 8.61818 30.9942 8.37075 31.3117ZM32.6694 25.9408C28.2616 31.8303 18.7792 29.83 12.7416 30.1264C12.7416 30.1264 11.6674 30.2005 10.5931 30.3486C10.5931 30.3486 11.0007 30.1635 11.5192 29.9782C15.7789 28.4967 17.779 28.2003 20.3719 26.8668C25.2243 24.385 30.0766 18.9402 31.0396 13.3099C29.1876 18.7179 23.5575 23.385 18.4458 25.2741C14.9269 26.5705 8.59305 27.8299 8.59305 27.8299L8.3337 27.6817C4.03695 25.5703 3.8889 16.2361 11.7414 13.2358C15.1863 11.9023 18.4458 12.6433 22.1869 11.7543C26.1502 10.8282 30.7434 7.86495 32.5955 3.97575C34.6697 10.2355 37.1884 19.9402 32.6694 25.9408Z"
            fill="#6CB52D" />
    </g>
    <defs>
        <clipPath id="clip0_21_191">
            <rect width="36" height="36" fill="white" />
        </clipPath>
    </defs>
</svg>